<svg aria-hidden="true" id="svgdefs" version="2" xmlns="http://www.w3.org/2000/svg">
  <defs>
    <symbol id="logo" viewBox="0 0 244 244">
      <circle cx="122.4" cy="122.4" r="122.4" />
      <path fill="#ffffff"
        d="M157.4,126c2.7-1.5,5.2-3.1,7.5-4.8c2.3-1.8,4.2-3.4,5.7-5c1.8-1.8,3.4-3.7,4.9-5.5
				c2.4-3.3,3.6-6.2,3.5-8.8c0-2.6-0.5-4.8-1.5-6.5c-1.2-2.1-2.9-4-5-5.7c-4-1.9-8.5-3.2-13.3-3.7c-4.9-0.6-9.4-0.8-13.7-0.7
				c-5.1,0.2-10,0.7-15,1.7c-9.8,2-17.2,4.4-22.3,7.1c-5,2.8-8.5,5.3-10.4,7.4c-0.7,0.8-1.2,1.5-1.6,2.1c-0.4,0.5-0.6,1.1-0.8,1.5
				c-0.3,0.4-0.5,0.9-0.6,1.5c-0.4,2.7,0.3,5,1.9,6.8c1.1,1.2,2.4,2.2,3.7,3.1c0,0,0,0-0.1,0c-0.2,0.2,9.2,7.2,4.8,12.9
				c-3,3.9-4.7,6.4-6.7,8.9c-2.4,3-4.7,5.1-6.9,6.4c-1.8,1.2-3.4,1.8-4.8,2c-1.5,0.1-2.7,0-3.8-0.3c-1.2-0.4-2.3-0.9-3.3-1.8
				c-1.7-1.5-3-3.3-3.9-5.4c-0.9-2.1-1.5-4.4-1.8-6.9c-0.3-2.5-0.4-5.1-0.2-7.8c0.2-2.7,0.5-5.2,0.8-7.7c1-6,2.6-12.3,5.1-18.9
				c3-7.9,6.4-15.2,10.2-21.7c1.6-2.7,3.3-5.4,5.3-8.1c1.9-2.7,4-5.2,6.1-7.3c2.1-2.2,4.4-4,6.9-5.4c2.4-1.4,5-2.3,7.5-2.5
				c0.8-0.1,1.4-0.1,2,0.2c0.6,0.2,1,0.6,1.5,1.2c0.4,0.6,0.5,1.6,0.4,2.9c-0.1,2.2-0.5,4.3-1.1,6.3c-0.6,2.1-1.3,3.8-2.1,5.4
				c-0.9,1.9-1.8,3.7-2.9,5.4c-0.6,1.1-1.1,2-1.6,2.7c-0.5,0.7-1,1.3-1.4,1.7c-0.4,0.5-0.8,0.9-1.2,1.2c-0.6,0.8-0.9,1.3-1,1.5
				c-0.1,0.2-0.1,0.4,0.1,0.7c0,0.4,0.3,0.6,0.8,0.6c0.2,0.1,0.5,0.1,0.8,0c1.5-0.3,2.9-0.8,4.4-1.6c1.4-0.8,2.7-1.6,3.8-2.4
				c1.3-0.9,2.4-1.9,3.4-2.9c4.3-4,7.2-7.7,8.7-10.9c1.6-3.2,2.3-6,2.4-8.3c0.2-2.7-0.3-5-1.6-7c-1.3-1.6-3.1-2.6-5.6-2.9
				c-2.4-0.3-4.8-0.2-7.2,0.1c-2.8,0.4-5.7,1-8.8,2c-6.1,2.4-11.5,5.3-16.3,8.7c-4.7,3.3-8.9,7-12.5,10.9c-3.6,3.9-6.7,8-9.2,12.3
				c-2.6,4.3-4.7,8.4-6.4,12.4c-4.1,9.4-6.7,19.4-8,29.9c-0.6,6.9-0.3,13,0.9,18.2c0.5,2.3,1.2,4.4,2.1,6.5c0.9,2.1,2.2,3.9,3.7,5.5
				c1.5,1.6,3.4,2.8,5.6,3.6c2.2,0.8,4.9,1.1,8,0.7c4.2-0.6,8.4-2,12.7-4.3c3.7-2,7.7-5.1,11.9-9.1c4.3-4,7.2-8.7,11.6-15.9
				c2.9-4.8-0.7-9.3-3.3-11.8c-0.9-1.1-2.6-2.6-3.4-4c-0.7-1.3-0.8-2.8-0.4-4.3c0.7-2.1,2.2-4.1,4.3-6.1c1.8-1.6,4.5-3.3,7.9-5.1
				c3.4-1.8,8-3.3,13.9-4.5c5.1-0.8,9.8-1.2,14-1c1.7,0.1,3.5,0.3,5.3,0.7c1.8,0.3,3.4,0.8,4.9,1.5c1.5,0.7,2.8,1.6,3.8,2.7
				c1,1.1,1.7,2.5,2,4.1c0.5,3.8,0.1,7.6-1.4,11.2c-1.3,3.2-3.8,6.6-7.5,10.2c-3.7,3.6-9.4,6.8-17.1,9.6c-0.2,0-0.4,0.1-0.6,0.4
				c-0.2,0.2-0.4,0.5-0.5,0.8c-0.2,0.3-0.3,0.6-0.4,1.1c-0.1,0.2-0.1,0.4,0,0.5c0.1,0.3,0.5,0.5,1.2,0.4c4,0.3,7.5,1.3,10.6,2.9
				c1.3,0.7,2.6,1.5,3.8,2.5c1.2,1,2.2,2.2,3.1,3.7c0.8,1.5,1.5,3.2,1.9,5.1c0.4,1.9,0.5,4.1,0.2,6.5c-0.5,4.1-1.6,7.9-3.4,11.2
				c-1.8,3.3-3.6,6.3-5.5,8.7c-2.3,2.9-4.8,5.5-7.5,7.7c-3.2,2.3-6.2,4-9.1,4.9c-2.9,0.9-5.4,1.4-7.5,1.6c-2.6,0.2-5,0-7.2-0.5
				c-0.9-0.1-1.5-0.2-1.7-0.6c-0.3-0.3-0.5-0.7-0.6-1.1c-0.1-0.4-0.1-0.9-0.1-1.5c0.4-2.2,1.1-5.1,2.2-8.7c1-3.6,2.3-7.6,3.7-12
				c1.5-4.3,3.1-8.9,4.8-13.8c1.7-4.8,3.4-9.6,5.1-14.4c4-11,8.4-22.9,13.3-35.6c0.3-0.8,0.3-1.3-0.1-1.6c-0.2-0.1-0.5-0.2-0.8-0.3
				c-1.6,0.1-3.2,0.3-4.8,0.6c-1.4,0.3-2.8,0.7-4.4,1.3c-1.5,0.6-2.9,1.4-4,2.4c-0.3,0.2-0.7,0.6-1.1,1c-0.3,0.3-0.6,0.8-0.9,1.4
				c-0.3,0.5-0.6,1.1-0.9,1.7c-4.7,11.2-9.1,21.9-13,32.2c-1.7,4.4-3.4,8.9-5.1,13.6c-1.7,4.6-3.4,9.1-4.9,13.5
				c-1.5,4.4-2.9,8.5-4,12.4c-1.2,3.9-2.1,7.3-2.6,10.3l0.1,1c0,0.8,0.4,1.3,1.1,1.7c3.8,1.6,7.9,2.7,12.5,3.2
				c3.9,0.4,8.5,0.4,13.8-0.1c5.3-0.5,10.9-2.1,16.9-4.8c7.8-3.5,13.8-7.4,18.1-11.7c4.3-4.3,7.4-8.4,9.5-12.3c2.4-4.5,3.9-9,4.4-13.7
				c0.8-5,0.4-9.1-1-12.3c-1.5-3.2-3.3-5.8-5.3-7.7c-2.4-2.2-5.3-3.9-8.5-5c-0.6-0.3-0.7-0.6-0.4-1C156.9,126.3,157.1,126.2,157.4,126
				z" />
    </symbol>
  </defs>
</svg>
